<svg width="1641" height="939" viewBox="0 0 1641 939" fill="none" xmlns="http://www.w3.org/2000/svg">
<g filter="url(#filter0_d_2980_3704)">
<rect x="4" width="1632.59" height="930.788" rx="166" fill="#CBFFBC"/>
<line x1="441.491" y1="397.02" x2="668.51" y2="397.02" stroke="#3B5833" stroke-opacity="0.87" stroke-width="11" stroke-linecap="round"/>
<line x1="965.5" y1="395.5" x2="1192.52" y2="395.5" stroke="#3B5833" stroke-opacity="0.87" stroke-width="11" stroke-linecap="round"/>
<rect x="110" y="237" width="340" height="327" rx="70" fill="#C1F6B2"/>
<rect x="117" y="244" width="326" height="313" rx="63" stroke="black" stroke-opacity="0.1" stroke-width="14"/>
<path d="M275.448 459.703C287.356 455.02 284.747 442.11 278.726 433.948C272.773 425.586 264.544 419.833 256.249 414.281C250.33 410.552 245.045 405.9 240.596 400.5C238.723 398.293 234.91 394.212 238.79 393.409C242.736 392.607 249.56 396.487 253.038 397.958C259.126 400.5 264.332 405.745 270.766 406.922C277.2 408.1 281.475 400.5 277.522 395.55C273.569 390.6 253.707 382.572 241.265 380.766C234.174 379.696 226.681 381.167 224.273 388.861C222.132 395.483 225.544 402.173 229.424 407.391C238.589 419.633 252.838 425.519 263.474 436.089C265.749 438.297 268.491 440.905 269.829 443.983C271.234 446.926 270.9 447.127 267.755 447.127C259.46 447.127 247.275 436.089 242.335 436.357C237.395 436.624 232.432 441.758 235.579 447.729C238.725 453.7 262.939 463.851 275.448 459.703ZM349.636 355.346C351.108 353.874 351.108 351.466 349.636 350.061L340.939 341.364C340.24 340.686 339.305 340.307 338.331 340.307C337.356 340.307 336.421 340.686 335.722 341.364L328.898 348.188L342.813 362.102M283.81 393.276V407.19H297.725L338.866 366.049L324.951 352.135L283.81 393.276Z" fill="#0E3016"/>
<rect x="650" y="240" width="340" height="327" rx="70" fill="#C1F6B2"/>
<rect x="657" y="247" width="326" height="313" rx="63" stroke="black" stroke-opacity="0.1" stroke-width="14"/>
<path d="M760.294 403.499C760.294 375.115 760.294 360.927 769.111 352.11C777.928 343.293 792.123 343.293 820.5 343.293C848.877 343.293 863.073 343.293 871.889 352.11C880.706 360.927 880.706 375.122 880.706 403.499C880.706 431.876 880.706 446.072 871.889 454.889C863.073 463.705 848.877 463.705 820.5 463.705C792.123 463.705 777.928 463.705 769.111 454.889C760.294 446.072 760.294 431.876 760.294 403.499Z" stroke="#0E3016" stroke-width="10.0344"/>
<path d="M760.294 403.5H880.706M813.81 373.397H853.948M787.888 373.397H787.052M813.81 433.603H853.948M787.888 433.603H787.052M788.724 373.397C788.724 373.841 788.548 374.266 788.235 374.58C787.921 374.893 787.496 375.069 787.052 375.069C786.609 375.069 786.183 374.893 785.87 374.58C785.556 374.266 785.38 373.841 785.38 373.397C785.38 372.953 785.556 372.528 785.87 372.214C786.183 371.901 786.609 371.725 787.052 371.725C787.496 371.725 787.921 371.901 788.235 372.214C788.548 372.528 788.724 372.953 788.724 373.397ZM788.724 433.603C788.724 434.047 788.548 434.472 788.235 434.786C787.921 435.099 787.496 435.276 787.052 435.276C786.609 435.276 786.183 435.099 785.87 434.786C785.556 434.472 785.38 434.047 785.38 433.603C785.38 433.16 785.556 432.734 785.87 432.421C786.183 432.107 786.609 431.931 787.052 431.931C787.496 431.931 787.921 432.107 788.235 432.421C788.548 432.734 788.724 433.16 788.724 433.603Z" stroke="#0E3016" stroke-width="10.0344" stroke-linecap="round" stroke-linejoin="round"/>
<path d="M550.22 451.736C537.822 448.615 527.586 441.501 519.512 430.394C511.438 419.288 507.403 406.957 507.407 393.403V360.758L550.22 344.703L593.033 360.758V393.403C593.033 406.961 588.998 419.293 580.928 430.399C572.858 441.506 562.622 448.618 550.22 451.736Z" fill="#0E3016"/>
<path d="M1090.22 451.736C1077.82 448.615 1067.59 441.501 1059.51 430.394C1051.44 419.288 1047.4 406.957 1047.41 393.403V360.758L1090.22 344.703L1133.03 360.758V393.403C1133.03 406.961 1129 419.293 1120.93 430.399C1112.86 441.506 1102.62 448.618 1090.22 451.736Z" fill="#0E3016"/>
<rect x="1190" y="243" width="340" height="327" rx="70" fill="#C1F6B2"/>
<rect x="1197" y="250" width="326" height="313" rx="63" stroke="black" stroke-opacity="0.1" stroke-width="14"/>
<g clip-path="url(#clip0_2980_3704)">
<path d="M1377.08 323.542L1387.38 331.084C1389.08 332.326 1391.05 333.147 1393.13 333.469L1405.75 335.409C1411.99 336.373 1417.77 339.3 1422.23 343.768C1426.7 348.235 1429.63 354.009 1430.59 360.252L1432.52 372.885C1432.84 374.959 1433.66 376.933 1434.91 378.63L1442.45 388.922C1446.19 394.02 1448.2 400.178 1448.2 406.5C1448.2 412.823 1446.19 418.981 1442.45 424.079L1434.91 434.371C1433.67 436.071 1432.85 438.04 1432.52 440.116L1430.58 452.737C1429.62 458.984 1426.69 464.762 1422.22 469.232C1417.75 473.701 1411.97 476.629 1405.73 477.591L1393.1 479.532C1391.03 479.862 1389.06 480.679 1387.36 481.917L1377.07 489.458C1371.97 493.197 1365.81 495.214 1359.49 495.214C1353.17 495.214 1347.01 493.197 1341.91 489.458L1331.62 481.917C1329.92 480.679 1327.95 479.862 1325.87 479.532L1313.25 477.591C1307.01 476.628 1301.23 473.7 1296.77 469.233C1292.3 464.766 1289.37 458.992 1288.41 452.748L1286.47 440.127C1286.14 438.051 1285.32 436.082 1284.08 434.382L1276.54 424.09C1272.8 418.992 1270.79 412.834 1270.79 406.511C1270.79 400.189 1272.8 394.031 1276.54 388.933L1284.08 378.641C1285.33 376.944 1286.15 374.97 1286.47 372.896L1288.41 360.252C1289.37 354.009 1292.3 348.235 1296.77 343.768C1301.23 339.3 1307.01 336.373 1313.25 335.409L1325.88 333.469C1327.96 333.147 1329.93 332.326 1331.63 331.084L1341.92 323.542C1347.02 319.803 1353.18 317.787 1359.5 317.787C1365.82 317.787 1371.98 319.803 1377.08 323.542ZM1351.77 336.94L1341.49 344.482C1337.62 347.31 1333.14 349.17 1328.4 349.905L1315.79 351.835C1313.04 352.258 1310.5 353.547 1308.53 355.516C1306.56 357.484 1305.27 360.029 1304.85 362.781L1302.92 375.38C1302.18 380.113 1300.32 384.601 1297.49 388.467L1289.95 398.759C1288.31 401.002 1287.42 403.71 1287.42 406.489C1287.42 409.269 1288.31 411.976 1289.95 414.219L1297.49 424.5C1300.33 428.36 1302.19 432.852 1302.92 437.587L1304.85 450.197C1305.71 455.843 1310.15 460.279 1315.79 461.144L1328.39 463.074C1333.12 463.809 1337.61 465.669 1341.48 468.497L1351.77 476.039C1356.36 479.421 1362.63 479.421 1367.23 476.039L1377.51 468.497C1381.38 465.669 1385.86 463.809 1390.6 463.074L1403.21 461.144C1405.96 460.721 1408.5 459.431 1410.47 457.463C1412.44 455.494 1413.73 452.949 1414.15 450.197L1416.08 437.598C1416.82 432.865 1418.68 428.377 1421.51 424.512L1429.05 414.219C1430.69 411.976 1431.58 409.269 1431.58 406.489C1431.58 403.71 1430.69 401.002 1429.05 398.759L1421.51 388.478C1418.68 384.612 1416.82 380.124 1416.08 375.391L1414.15 362.781C1413.73 360.029 1412.44 357.484 1410.47 355.516C1408.5 353.547 1405.96 352.258 1403.21 351.835L1390.61 349.905C1385.88 349.17 1381.39 347.31 1377.52 344.482L1367.23 336.94C1364.99 335.298 1362.28 334.413 1359.5 334.413C1356.72 334.413 1354.01 335.298 1351.77 336.94ZM1395.88 392.97L1354.29 434.56C1352.73 436.117 1350.61 436.992 1348.41 436.992C1346.21 436.992 1344.09 436.117 1342.53 434.56L1323.12 415.151C1321.65 413.575 1320.85 411.488 1320.89 409.332C1320.92 407.177 1321.8 405.119 1323.32 403.595C1324.85 402.07 1326.9 401.197 1329.06 401.16C1331.22 401.122 1333.3 401.924 1334.88 403.395L1348.41 416.926L1384.12 381.214C1385.7 379.743 1387.78 378.941 1389.94 378.978C1392.1 379.016 1394.15 379.889 1395.68 381.413C1397.2 382.938 1398.08 384.995 1398.11 387.151C1398.15 389.307 1397.35 391.393 1395.88 392.97Z" fill="#0E3016"/>
</g>
<path d="M224.928 660.574C221.101 660.574 217.657 659.918 214.596 658.606C211.535 657.239 209.129 655.326 207.38 652.866C205.631 650.406 204.756 647.536 204.756 644.256H214.76C214.979 646.716 215.935 648.739 217.63 650.324C219.379 651.909 221.812 652.702 224.928 652.702C228.153 652.702 230.668 651.937 232.472 650.406C234.276 648.821 235.178 646.798 235.178 644.338C235.178 642.425 234.604 640.867 233.456 639.664C232.363 638.461 230.969 637.532 229.274 636.876C227.634 636.22 225.338 635.509 222.386 634.744C218.669 633.76 215.635 632.776 213.284 631.792C210.988 630.753 209.02 629.168 207.38 627.036C205.74 624.904 204.92 622.061 204.92 618.508C204.92 615.228 205.74 612.358 207.38 609.898C209.02 607.438 211.316 605.552 214.268 604.24C217.22 602.928 220.637 602.272 224.518 602.272C230.039 602.272 234.549 603.666 238.048 606.454C241.601 609.187 243.569 612.959 243.952 617.77H233.62C233.456 615.693 232.472 613.916 230.668 612.44C228.864 610.964 226.486 610.226 223.534 610.226C220.855 610.226 218.669 610.909 216.974 612.276C215.279 613.643 214.432 615.611 214.432 618.18C214.432 619.929 214.951 621.378 215.99 622.526C217.083 623.619 218.45 624.494 220.09 625.15C221.73 625.806 223.971 626.517 226.814 627.282C230.586 628.321 233.647 629.359 235.998 630.398C238.403 631.437 240.426 633.049 242.066 635.236C243.761 637.368 244.608 640.238 244.608 643.846C244.608 646.743 243.815 649.477 242.23 652.046C240.699 654.615 238.431 656.693 235.424 658.278C232.472 659.809 228.973 660.574 224.928 660.574ZM253.834 608.832C252.14 608.832 250.718 608.258 249.57 607.11C248.422 605.962 247.848 604.541 247.848 602.846C247.848 601.151 248.422 599.73 249.57 598.582C250.718 597.434 252.14 596.86 253.834 596.86C255.474 596.86 256.868 597.434 258.016 598.582C259.164 599.73 259.738 601.151 259.738 602.846C259.738 604.541 259.164 605.962 258.016 607.11C256.868 608.258 255.474 608.832 253.834 608.832ZM258.426 614.818V660H249.078V614.818H258.426ZM282.343 614.08C285.842 614.08 288.931 614.791 291.609 616.212C294.343 617.579 296.475 619.301 298.005 621.378V614.818H307.435V660.738C307.435 664.893 306.561 668.583 304.811 671.808C303.062 675.088 300.52 677.657 297.185 679.516C293.905 681.375 289.969 682.304 285.377 682.304C279.255 682.304 274.171 680.855 270.125 677.958C266.08 675.115 263.784 671.234 263.237 666.314H272.503C273.214 668.665 274.717 670.551 277.013 671.972C279.364 673.448 282.152 674.186 285.377 674.186C289.149 674.186 292.183 673.038 294.479 670.742C296.83 668.446 298.005 665.111 298.005 660.738V653.194C296.42 655.326 294.261 657.13 291.527 658.606C288.849 660.027 285.787 660.738 282.343 660.738C278.407 660.738 274.799 659.754 271.519 657.786C268.294 655.763 265.725 652.975 263.811 649.422C261.953 645.814 261.023 641.741 261.023 637.204C261.023 632.667 261.953 628.649 263.811 625.15C265.725 621.651 268.294 618.945 271.519 617.032C274.799 615.064 278.407 614.08 282.343 614.08ZM298.005 637.368C298.005 634.252 297.349 631.546 296.037 629.25C294.78 626.954 293.113 625.205 291.035 624.002C288.958 622.799 286.717 622.198 284.311 622.198C281.906 622.198 279.665 622.799 277.587 624.002C275.51 625.15 273.815 626.872 272.503 629.168C271.246 631.409 270.617 634.088 270.617 637.204C270.617 640.32 271.246 643.053 272.503 645.404C273.815 647.755 275.51 649.559 277.587 650.816C279.719 652.019 281.961 652.62 284.311 652.62C286.717 652.62 288.958 652.019 291.035 650.816C293.113 649.613 294.78 647.864 296.037 645.568C297.349 643.217 298.005 640.484 298.005 637.368ZM335.95 614.08C339.503 614.08 342.674 614.818 345.462 616.294C348.304 617.77 350.518 619.957 352.104 622.854C353.689 625.751 354.482 629.25 354.482 633.35V660H345.216V634.744C345.216 630.699 344.204 627.61 342.182 625.478C340.159 623.291 337.398 622.198 333.9 622.198C330.401 622.198 327.613 623.291 325.536 625.478C323.513 627.61 322.502 630.699 322.502 634.744V660H313.154V614.818H322.502V619.984C324.032 618.125 325.973 616.677 328.324 615.638C330.729 614.599 333.271 614.08 335.95 614.08Z" fill="black"/>
<path d="M747.266 670.332L737.262 659.508C734.802 660.219 732.096 660.574 729.144 660.574C723.841 660.574 718.949 659.344 714.466 656.884C710.038 654.369 706.512 650.898 703.888 646.47C701.319 641.987 700.034 636.958 700.034 631.382C700.034 625.806 701.319 620.804 703.888 616.376C706.512 611.948 710.038 608.504 714.466 606.044C718.949 603.529 723.841 602.272 729.144 602.272C734.501 602.272 739.394 603.529 743.822 606.044C748.305 608.504 751.831 611.948 754.4 616.376C756.969 620.804 758.254 625.806 758.254 631.382C758.254 636.63 757.106 641.386 754.81 645.65C752.569 649.859 749.453 653.249 745.462 655.818L759.156 670.332H747.266ZM709.628 631.382C709.628 635.591 710.448 639.309 712.088 642.534C713.783 645.705 716.106 648.165 719.058 649.914C722.01 651.609 725.372 652.456 729.144 652.456C732.916 652.456 736.278 651.609 739.23 649.914C742.182 648.165 744.478 645.705 746.118 642.534C747.813 639.309 748.66 635.591 748.66 631.382C748.66 627.173 747.813 623.483 746.118 620.312C744.478 617.141 742.182 614.709 739.23 613.014C736.278 611.319 732.916 610.472 729.144 610.472C725.372 610.472 722.01 611.319 719.058 613.014C716.106 614.709 713.783 617.141 712.088 620.312C710.448 623.483 709.628 627.173 709.628 631.382ZM802.051 614.818V660H792.703V654.67C791.227 656.529 789.286 658.005 786.881 659.098C784.53 660.137 782.016 660.656 779.337 660.656C775.784 660.656 772.586 659.918 769.743 658.442C766.955 656.966 764.741 654.779 763.101 651.882C761.516 648.985 760.723 645.486 760.723 641.386V614.818H769.989V639.992C769.989 644.037 771 647.153 773.023 649.34C775.046 651.472 777.806 652.538 781.305 652.538C784.804 652.538 787.564 651.472 789.587 649.34C791.664 647.153 792.703 644.037 792.703 639.992V614.818H802.051ZM849.235 636.302C849.235 637.997 849.126 639.527 848.907 640.894H814.385C814.658 644.502 815.998 647.399 818.403 649.586C820.808 651.773 823.76 652.866 827.259 652.866C832.288 652.866 835.842 650.761 837.919 646.552H848.005C846.638 650.707 844.151 654.123 840.543 656.802C836.99 659.426 832.562 660.738 827.259 660.738C822.94 660.738 819.059 659.781 815.615 657.868C812.226 655.9 809.547 653.167 807.579 649.668C805.666 646.115 804.709 642.015 804.709 637.368C804.709 632.721 805.638 628.649 807.497 625.15C809.41 621.597 812.062 618.863 815.451 616.95C818.895 615.037 822.831 614.08 827.259 614.08C831.523 614.08 835.322 615.009 838.657 616.868C841.992 618.727 844.588 621.351 846.447 624.74C848.306 628.075 849.235 631.929 849.235 636.302ZM839.477 633.35C839.422 629.906 838.192 627.145 835.787 625.068C833.382 622.991 830.402 621.952 826.849 621.952C823.624 621.952 820.863 622.991 818.567 625.068C816.271 627.091 814.904 629.851 814.467 633.35H839.477ZM892.792 614.818V660H883.444V654.67C881.968 656.529 880.028 658.005 877.622 659.098C875.272 660.137 872.757 660.656 870.078 660.656C866.525 660.656 863.327 659.918 860.484 658.442C857.696 656.966 855.482 654.779 853.842 651.882C852.257 648.985 851.464 645.486 851.464 641.386V614.818H860.73V639.992C860.73 644.037 861.742 647.153 863.764 649.34C865.787 651.472 868.548 652.538 872.046 652.538C875.545 652.538 878.306 651.472 880.328 649.34C882.406 647.153 883.444 644.037 883.444 639.992V614.818H892.792ZM939.976 636.302C939.976 637.997 939.867 639.527 939.648 640.894H905.126C905.4 644.502 906.739 647.399 909.144 649.586C911.55 651.773 914.502 652.866 918 652.866C923.03 652.866 926.583 650.761 928.66 646.552H938.746C937.38 650.707 934.892 654.123 931.284 656.802C927.731 659.426 923.303 660.738 918 660.738C913.682 660.738 909.8 659.781 906.356 657.868C902.967 655.9 900.288 653.167 898.32 649.668C896.407 646.115 895.45 642.015 895.45 637.368C895.45 632.721 896.38 628.649 898.238 625.15C900.152 621.597 902.803 618.863 906.192 616.95C909.636 615.037 913.572 614.08 918 614.08C922.264 614.08 926.064 615.009 929.398 616.868C932.733 618.727 935.33 621.351 937.188 624.74C939.047 628.075 939.976 631.929 939.976 636.302ZM930.218 633.35C930.164 629.906 928.934 627.145 926.528 625.068C924.123 622.991 921.144 621.952 917.59 621.952C914.365 621.952 911.604 622.991 909.308 625.068C907.012 627.091 905.646 629.851 905.208 633.35H930.218Z" fill="black"/>
<path d="M1283.93 660.574C1280.1 660.574 1276.66 659.918 1273.6 658.606C1270.53 657.239 1268.13 655.326 1266.38 652.866C1264.63 650.406 1263.76 647.536 1263.76 644.256H1273.76C1273.98 646.716 1274.94 648.739 1276.63 650.324C1278.38 651.909 1280.81 652.702 1283.93 652.702C1287.15 652.702 1289.67 651.937 1291.47 650.406C1293.28 648.821 1294.18 646.798 1294.18 644.338C1294.18 642.425 1293.6 640.867 1292.46 639.664C1291.36 638.461 1289.97 637.532 1288.27 636.876C1286.63 636.22 1284.34 635.509 1281.39 634.744C1277.67 633.76 1274.63 632.776 1272.28 631.792C1269.99 630.753 1268.02 629.168 1266.38 627.036C1264.74 624.904 1263.92 622.061 1263.92 618.508C1263.92 615.228 1264.74 612.358 1266.38 609.898C1268.02 607.438 1270.32 605.552 1273.27 604.24C1276.22 602.928 1279.64 602.272 1283.52 602.272C1289.04 602.272 1293.55 603.666 1297.05 606.454C1300.6 609.187 1302.57 612.959 1302.95 617.77H1292.62C1292.46 615.693 1291.47 613.916 1289.67 612.44C1287.86 610.964 1285.49 610.226 1282.53 610.226C1279.86 610.226 1277.67 610.909 1275.97 612.276C1274.28 613.643 1273.43 615.611 1273.43 618.18C1273.43 619.929 1273.95 621.378 1274.99 622.526C1276.08 623.619 1277.45 624.494 1279.09 625.15C1280.73 625.806 1282.97 626.517 1285.81 627.282C1289.59 628.321 1292.65 629.359 1295 630.398C1297.4 631.437 1299.43 633.049 1301.07 635.236C1302.76 637.368 1303.61 640.238 1303.61 643.846C1303.61 646.743 1302.82 649.477 1301.23 652.046C1299.7 654.615 1297.43 656.693 1294.42 658.278C1291.47 659.809 1287.97 660.574 1283.93 660.574ZM1349.49 636.302C1349.49 637.997 1349.38 639.527 1349.16 640.894H1314.64C1314.91 644.502 1316.25 647.399 1318.66 649.586C1321.06 651.773 1324.01 652.866 1327.51 652.866C1332.54 652.866 1336.09 650.761 1338.17 646.552H1348.26C1346.89 650.707 1344.4 654.123 1340.8 656.802C1337.24 659.426 1332.81 660.738 1327.51 660.738C1323.19 660.738 1319.31 659.781 1315.87 657.868C1312.48 655.9 1309.8 653.167 1307.83 649.668C1305.92 646.115 1304.96 642.015 1304.96 637.368C1304.96 632.721 1305.89 628.649 1307.75 625.15C1309.66 621.597 1312.31 618.863 1315.7 616.95C1319.15 615.037 1323.08 614.08 1327.51 614.08C1331.78 614.08 1335.58 615.009 1338.91 616.868C1342.24 618.727 1344.84 621.351 1346.7 624.74C1348.56 628.075 1349.49 631.929 1349.49 636.302ZM1339.73 633.35C1339.68 629.906 1338.45 627.145 1336.04 625.068C1333.63 622.991 1330.66 621.952 1327.1 621.952C1323.88 621.952 1321.12 622.991 1318.82 625.068C1316.52 627.091 1315.16 629.851 1314.72 633.35H1339.73ZM1363.03 622.444V647.454C1363.03 649.149 1363.42 650.379 1364.18 651.144C1365 651.855 1366.37 652.21 1368.28 652.21H1374.02V660H1366.64C1362.43 660 1359.21 659.016 1356.97 657.048C1354.72 655.08 1353.6 651.882 1353.6 647.454V622.444H1348.27V614.818H1353.6V603.584H1363.03V614.818H1374.02V622.444H1363.03ZM1386.98 622.444V647.454C1386.98 649.149 1387.37 650.379 1388.13 651.144C1388.95 651.855 1390.32 652.21 1392.23 652.21H1397.97V660H1390.59C1386.38 660 1383.16 659.016 1380.92 657.048C1378.67 655.08 1377.55 651.882 1377.55 647.454V622.444H1372.22V614.818H1377.55V603.584H1386.98V614.818H1397.97V622.444H1386.98ZM1409.38 599.32V660H1400.03V599.32H1409.38ZM1456.5 636.302C1456.5 637.997 1456.39 639.527 1456.17 640.894H1421.65C1421.92 644.502 1423.26 647.399 1425.67 649.586C1428.07 651.773 1431.02 652.866 1434.52 652.866C1439.55 652.866 1443.1 650.761 1445.18 646.552H1455.27C1453.9 650.707 1451.41 654.123 1447.81 656.802C1444.25 659.426 1439.82 660.738 1434.52 660.738C1430.2 660.738 1426.32 659.781 1422.88 657.868C1419.49 655.9 1416.81 653.167 1414.84 649.668C1412.93 646.115 1411.97 642.015 1411.97 637.368C1411.97 632.721 1412.9 628.649 1414.76 625.15C1416.67 621.597 1419.32 618.863 1422.71 616.95C1426.16 615.037 1430.09 614.08 1434.52 614.08C1438.79 614.08 1442.59 615.009 1445.92 616.868C1449.25 618.727 1451.85 621.351 1453.71 624.74C1455.57 628.075 1456.5 631.929 1456.5 636.302ZM1446.74 633.35C1446.69 629.906 1445.46 627.145 1443.05 625.068C1440.64 622.991 1437.67 621.952 1434.11 621.952C1430.89 621.952 1428.13 622.991 1425.83 625.068C1423.53 627.091 1422.17 629.851 1421.73 633.35H1446.74Z" fill="black"/>
</g>
<defs>
<filter id="filter0_d_2980_3704" x="0" y="0" width="1640.59" height="938.789" filterUnits="userSpaceOnUse" color-interpolation-filters="sRGB">
<feFlood flood-opacity="0" result="BackgroundImageFix"/>
<feColorMatrix in="SourceAlpha" type="matrix" values="0 0 0 0 0 0 0 0 0 0 0 0 0 0 0 0 0 0 127 0" result="hardAlpha"/>
<feOffset dy="4"/>
<feGaussianBlur stdDeviation="2"/>
<feComposite in2="hardAlpha" operator="out"/>
<feColorMatrix type="matrix" values="0 0 0 0 0 0 0 0 0 0 0 0 0 0 0 0 0 0 0.25 0"/>
<feBlend mode="normal" in2="BackgroundImageFix" result="effect1_dropShadow_2980_3704"/>
<feBlend mode="normal" in="SourceGraphic" in2="effect1_dropShadow_2980_3704" result="shape"/>
</filter>
<clipPath id="clip0_2980_3704">
<rect width="177.45" height="177.45" fill="white" transform="translate(1270.78 317.775)"/>
</clipPath>
</defs>
</svg>
