<svg width="53" height="48" viewBox="0 0 53 48" fill="none" xmlns="http://www.w3.org/2000/svg">
<path d="M0 11.3303V1.0674C0 0.477893 0.477895 0 1.06741 0H49.947C50.8646 0 51.3545 1.08128 50.7495 1.77119L20.8934 35.8156H51.2354C51.8249 35.8156 52.3028 36.2935 52.3028 36.883V46.8016C52.3028 47.3911 51.8249 47.869 51.2354 47.869H12.6787C11.7611 47.869 11.2712 46.7877 11.8762 46.0978L20.8934 35.8156H5.14293C4.21984 35.8156 3.73197 34.7232 4.34809 34.0358L22.1474 14.1776C22.7635 13.4902 22.2757 12.3977 21.3526 12.3977H1.0674C0.477893 12.3977 0 11.9198 0 11.3303Z" fill="url(#paint0_linear_2437_3595)"/>
<defs>
<linearGradient id="paint0_linear_2437_3595" x1="26.4" y1="0.2845" x2="26.4" y2="96.5345" gradientUnits="userSpaceOnUse">
<stop stop-color="white"/>
<stop offset="1" stop-color="#323232"/>
</linearGradient>
</defs>
</svg>
