<svg width="449" height="146" viewBox="0 0 449 146" fill="none" xmlns="http://www.w3.org/2000/svg">
<path d="M5.64 116V105.32L40.8 60.92L44.4 66.68H6.72V54.8H55.8V65.48L21.24 109.28L17.76 104.12H56.52V116H5.64ZM63.6863 140.6L79.5263 105.08L82.2863 100.52L99.5663 54.8H115.646L79.0463 140.6H63.6863ZM77.2463 115.4L52.4063 54.8H68.8463L89.6063 109.76L77.2463 115.4ZM149.502 117.2C143.662 117.2 138.902 115.84 135.222 113.12C131.622 110.32 129.382 106.48 128.502 101.6L129.702 101.48V140.6H114.582V54.8H129.342V68.6L128.142 68.36C129.262 63.8 131.822 60.2 135.822 57.56C139.822 54.92 144.702 53.6 150.462 53.6C155.902 53.6 160.622 54.92 164.622 57.56C168.702 60.12 171.862 63.76 174.102 68.48C176.342 73.2 177.462 78.76 177.462 85.16C177.462 91.64 176.302 97.28 173.982 102.08C171.662 106.88 168.422 110.6 164.262 113.24C160.102 115.88 155.182 117.2 149.502 117.2ZM145.662 104.72C150.542 104.72 154.422 103.04 157.302 99.68C160.182 96.24 161.622 91.44 161.622 85.28C161.622 79.12 160.142 74.36 157.182 71C154.302 67.64 150.422 65.96 145.542 65.96C140.742 65.96 136.862 67.68 133.902 71.12C130.942 74.48 129.462 79.24 129.462 85.4C129.462 91.56 130.942 96.32 133.902 99.68C136.862 103.04 140.782 104.72 145.662 104.72ZM214.433 117.2C208.593 117.2 203.833 115.84 200.153 113.12C196.553 110.32 194.313 106.48 193.433 101.6L194.633 101.48V140.6H179.513V54.8H194.273V68.6L193.073 68.36C194.193 63.8 196.753 60.2 200.753 57.56C204.753 54.92 209.633 53.6 215.393 53.6C220.833 53.6 225.553 54.92 229.553 57.56C233.633 60.12 236.793 63.76 239.033 68.48C241.273 73.2 242.393 78.76 242.393 85.16C242.393 91.64 241.233 97.28 238.913 102.08C236.593 106.88 233.353 110.6 229.193 113.24C225.033 115.88 220.113 117.2 214.433 117.2ZM210.593 104.72C215.473 104.72 219.353 103.04 222.233 99.68C225.113 96.24 226.553 91.44 226.553 85.28C226.553 79.12 225.073 74.36 222.113 71C219.233 67.64 215.353 65.96 210.473 65.96C205.673 65.96 201.793 67.68 198.833 71.12C195.873 74.48 194.393 79.24 194.393 85.4C194.393 91.56 195.873 96.32 198.833 99.68C201.793 103.04 205.713 104.72 210.593 104.72Z" fill="url(#paint0_linear_2431_1657)"/>
<path d="M252.68 116L272.6 29.6H285.08L265.16 116H252.68ZM311 116C310.92 114.96 311 113.56 311.24 111.8C311.48 109.96 311.88 107.84 312.44 105.44L311.96 105.32L318.56 76.4C319.12 74 319.12 71.8 318.56 69.8C318.08 67.8 316.96 66.24 315.2 65.12C313.44 63.92 310.92 63.32 307.64 63.32C303.64 63.32 300.4 64.16 297.92 65.84C295.52 67.44 293.88 69.68 293 72.56H281.36C283.04 66.56 286.24 61.92 290.96 58.64C295.76 55.28 301.76 53.6 308.96 53.6C314.96 53.6 319.72 54.68 323.24 56.84C326.76 59 329.08 61.96 330.2 65.72C331.4 69.4 331.48 73.56 330.44 78.2L324.08 105.44C323.76 106.96 323.48 108.76 323.24 110.84C323 112.84 322.96 114.56 323.12 116H311ZM291.8 117.2C286.2 117.2 281.72 115.76 278.36 112.88C275.08 109.92 273.44 106.08 273.44 101.36C273.44 97.2 274.48 93.72 276.56 90.92C278.72 88.04 281.8 85.76 285.8 84.08C289.8 82.32 294.64 81.12 300.32 80.48L320.6 78.2L318.56 86.84L300.08 89C295.36 89.48 291.8 90.64 289.4 92.48C287 94.24 285.8 96.72 285.8 99.92C285.8 102.4 286.68 104.28 288.44 105.56C290.2 106.76 292.72 107.36 296 107.36C300.64 107.36 304.64 106.24 308 104C311.36 101.68 313.44 98.8 314.24 95.36L313.76 104.6C311.52 108.44 308.52 111.52 304.76 113.84C301.08 116.08 296.76 117.2 291.8 117.2ZM363.551 117.32C359.551 117.32 356.031 116.56 352.991 115.04C349.951 113.44 347.591 111.28 345.911 108.56C344.311 105.76 343.551 102.6 343.631 99.08H344.831L340.751 116H328.871L348.791 29.6H361.271L352.631 66.92L351.431 66.56C353.511 62.48 356.511 59.32 360.431 57.08C364.431 54.84 368.871 53.72 373.751 53.72C380.871 53.72 386.471 55.96 390.551 60.44C394.711 64.92 396.791 71.08 396.791 78.92C396.791 84.2 395.911 89.16 394.151 93.8C392.471 98.44 390.111 102.52 387.071 106.04C384.031 109.48 380.511 112.24 376.511 114.32C372.511 116.32 368.191 117.32 363.551 117.32ZM362.351 106.64C365.471 106.64 368.311 105.96 370.871 104.6C373.511 103.24 375.791 101.36 377.711 98.96C379.711 96.56 381.231 93.8 382.271 90.68C383.391 87.48 383.951 84.16 383.951 80.72C383.951 75.52 382.671 71.44 380.111 68.48C377.551 65.44 374.031 63.92 369.551 63.92C367.071 63.92 364.711 64.4 362.471 65.36C360.311 66.24 358.311 67.48 356.471 69.08C354.711 70.68 353.151 72.56 351.791 74.72C350.431 76.88 349.391 79.24 348.671 81.8C347.951 84.36 347.591 87 347.591 89.72C347.591 95 348.951 99.16 351.671 102.2C354.391 105.16 357.951 106.64 362.351 106.64ZM417.942 117.32C412.822 117.32 408.302 116.48 404.382 114.8C400.462 113.12 397.422 110.76 395.262 107.72C393.182 104.68 392.222 101.12 392.382 97.04H403.902C403.902 99.28 404.502 101.24 405.702 102.92C406.982 104.52 408.702 105.76 410.862 106.64C413.102 107.52 415.662 107.96 418.542 107.96C422.382 107.96 425.422 107.2 427.662 105.68C429.902 104.16 431.022 102.08 431.022 99.44C431.022 97.68 430.422 96.24 429.222 95.12C428.102 93.92 426.262 92.8 423.702 91.76L414.822 88.28C409.782 86.36 406.102 84.16 403.782 81.68C401.542 79.2 400.422 76.16 400.422 72.56C400.422 68.8 401.422 65.52 403.422 62.72C405.502 59.84 408.302 57.6 411.822 56C415.342 54.4 419.462 53.6 424.182 53.6C428.742 53.6 432.782 54.36 436.302 55.88C439.822 57.4 442.582 59.52 444.582 62.24C446.582 64.96 447.582 68.16 447.582 71.84H436.182C436.022 69.92 435.382 68.32 434.262 67.04C433.222 65.68 431.782 64.64 429.942 63.92C428.102 63.2 425.862 62.84 423.222 62.84C419.702 62.84 416.942 63.52 414.942 64.88C413.022 66.24 412.062 68.16 412.062 70.64C412.062 72.32 412.662 73.72 413.862 74.84C415.062 75.96 417.062 77.08 419.862 78.2L428.982 81.8C433.542 83.64 436.942 85.88 439.182 88.52C441.422 91.16 442.542 94.32 442.542 98C442.542 101.92 441.502 105.36 439.422 108.32C437.422 111.2 434.582 113.44 430.902 115.04C427.302 116.56 422.982 117.32 417.942 117.32Z" fill="url(#paint1_linear_2431_1657)"/>
<defs>
<linearGradient id="paint0_linear_2431_1657" x1="38.1173" y1="69.5" x2="172.124" y2="127.069" gradientUnits="userSpaceOnUse">
<stop stop-color="white"/>
<stop offset="0.5" stop-color="#A6A6A6"/>
<stop offset="1" stop-color="white"/>
</linearGradient>
<linearGradient id="paint1_linear_2431_1657" x1="281.556" y1="69.5" x2="395.313" y2="108.675" gradientUnits="userSpaceOnUse">
<stop stop-color="white"/>
<stop offset="0.5" stop-color="#A6A6A6"/>
<stop offset="1" stop-color="white"/>
</linearGradient>
</defs>
</svg>
