<svg width="1570" height="939" viewBox="0 0 1570 939" fill="none" xmlns="http://www.w3.org/2000/svg">
<g filter="url(#filter0_dn_2980_5676)">
<g clip-path="url(#clip0_2980_5676)">
<rect x="4" width="1562" height="931" rx="166" fill="#CBFFBC"/>
<g opacity="0.09" style="mix-blend-mode:hard-light">
<path d="M-5.3908 45.7587C213.418 623.806 1009.61 392.26 1009.61 1085.76" stroke="#0E3016" stroke-width="109"/>
</g>
<g clip-path="url(#clip1_2980_5676)">
<path d="M356.579 310.573C365.18 295.676 379.347 284.805 395.963 280.353C412.579 275.901 430.283 278.232 445.18 286.833L618.8 387.072C633.697 395.673 644.568 409.84 649.02 426.456C653.472 443.072 651.142 460.776 642.541 475.673L424.373 853.551C415.772 868.449 401.605 879.319 384.989 883.771C368.373 888.224 350.669 885.893 335.771 877.292L162.152 777.053C147.254 768.451 136.384 754.285 131.931 737.669C127.479 721.053 129.81 703.349 138.411 688.451L356.579 310.573ZM272.181 704.406C268.118 702.06 263.289 701.424 258.758 702.638C254.226 703.853 250.362 706.817 248.017 710.88C245.671 714.943 245.035 719.772 246.249 724.303C247.464 728.835 250.428 732.699 254.491 735.044L325.982 776.319C330.045 778.665 334.873 779.301 339.405 778.086C343.936 776.872 347.8 773.908 350.146 769.845C352.491 765.782 353.127 760.953 351.913 756.422C350.699 751.89 347.734 748.026 343.671 745.681L272.181 704.406Z" fill="#0E3016"/>
</g>
<g clip-path="url(#clip2_2980_5676)">
<path d="M926.535 475.671C917.934 460.774 915.603 443.069 920.055 426.453C924.507 409.838 935.378 395.671 950.275 387.07L1123.89 286.83C1138.79 278.229 1156.5 275.899 1173.11 280.351C1189.73 284.803 1203.9 295.674 1212.5 310.571L1430.66 688.449C1439.27 703.346 1441.6 721.05 1437.14 737.666C1432.69 754.282 1421.82 768.449 1406.92 777.05L1233.3 877.29C1218.41 885.891 1200.7 888.221 1184.09 883.769C1167.47 879.317 1153.3 868.446 1144.7 853.549L926.535 475.671ZM1225.4 745.678C1221.34 748.024 1218.38 751.888 1217.16 756.419C1215.95 760.951 1216.58 765.779 1218.93 769.842C1221.28 773.905 1225.14 776.87 1229.67 778.084C1234.2 779.298 1239.03 778.663 1243.09 776.317L1314.58 735.042C1318.65 732.696 1321.61 728.833 1322.83 724.301C1324.04 719.769 1323.4 714.941 1321.06 710.878C1318.71 706.815 1314.85 703.85 1310.32 702.636C1305.79 701.422 1300.96 702.057 1296.89 704.403L1225.4 745.678Z" fill="#0E3016"/>
</g>
<rect x="492.414" y="276" width="587" height="258" rx="129" fill="#CBFFBC"/>
<rect x="499.914" y="283.5" width="572" height="243" rx="121.5" stroke="black" stroke-opacity="0.16" stroke-width="15"/>
<path d="M628.115 370.803V354.929C628.115 352.172 630.349 349.938 633.106 349.938H726.185C730.476 349.938 732.767 354.994 729.938 358.221L671.692 424.638H732.21C734.967 424.638 737.202 426.873 737.202 429.63V444.786C737.202 447.543 734.967 449.778 732.21 449.778H660.663C656.371 449.778 654.08 444.721 656.909 441.494L671.692 424.638H645.034C640.717 424.638 638.435 419.529 641.317 416.314L670.174 384.119C673.055 380.904 670.773 375.795 666.456 375.795H633.107C630.349 375.795 628.115 373.56 628.115 370.803Z" fill="#193C1A"/>
<path d="M807.076 387.286C807.076 391.754 806.022 395.969 803.914 399.932C801.806 403.895 798.434 407.14 793.797 409.67C789.16 412.115 783.216 413.337 775.965 413.337H760.031V449H745.614V361.108H775.965C782.71 361.108 788.401 362.288 793.038 364.649C797.759 366.925 801.258 370.044 803.535 374.007C805.895 377.969 807.076 382.396 807.076 387.286ZM775.965 401.576C781.445 401.576 785.534 400.354 788.232 397.909C790.93 395.379 792.279 391.838 792.279 387.286C792.279 377.674 786.841 372.869 775.965 372.869H760.031V401.576H775.965ZM806.036 413.843C806.036 406.845 807.469 400.649 810.336 395.253C813.286 389.857 817.249 385.684 822.223 382.733C827.282 379.698 832.846 378.18 838.917 378.18C844.397 378.18 849.16 379.276 853.207 381.468C857.338 383.576 860.626 386.232 863.071 389.435V379.318H877.614V449H863.071V438.63C860.626 441.918 857.296 444.658 853.08 446.85C848.865 449.042 844.059 450.138 838.664 450.138C832.678 450.138 827.198 448.621 822.223 445.585C817.249 442.466 813.286 438.166 810.336 432.686C807.469 427.122 806.036 420.841 806.036 413.843ZM863.071 414.096C863.071 409.29 862.059 405.117 860.036 401.576C858.097 398.035 855.525 395.337 852.322 393.482C849.118 391.627 845.661 390.7 841.952 390.7C838.242 390.7 834.785 391.627 831.582 393.482C828.378 395.253 825.764 397.909 823.741 401.45C821.802 404.906 820.832 409.037 820.832 413.843C820.832 418.649 821.802 422.864 823.741 426.489C825.764 430.115 828.378 432.897 831.582 434.836C834.87 436.691 838.326 437.618 841.952 437.618C845.661 437.618 849.118 436.691 852.322 434.836C855.525 432.981 858.097 430.283 860.036 426.742C862.059 423.117 863.071 418.902 863.071 414.096ZM949.293 379.318L906.548 481.754H891.625L905.789 447.862L878.346 379.318H894.407L914.009 432.433L934.37 379.318H949.293Z" fill="#193C1A"/>
<g clip-path="url(#clip3_2980_5676)">
<path d="M484.51 555.054C484.656 555.756 484.663 556.481 484.529 557.185C484.395 557.89 484.124 558.562 483.731 559.162C483.338 559.762 482.83 560.279 482.237 560.683C481.644 561.087 480.978 561.37 480.275 561.517C479.573 561.663 478.849 561.67 478.144 561.536C477.439 561.402 476.767 561.131 476.167 560.738C475.567 560.345 475.05 559.837 474.646 559.244C474.242 558.651 473.959 557.985 473.812 557.282L470.206 539.945L452.871 543.561C451.452 543.857 449.974 543.577 448.762 542.783C447.55 541.989 446.703 540.746 446.408 539.327C446.112 537.908 446.392 536.431 447.186 535.219C447.981 534.006 449.224 533.16 450.642 532.864L467.979 529.257L464.363 511.922C464.217 511.22 464.21 510.496 464.344 509.791C464.477 509.086 464.749 508.414 465.142 507.814C465.535 507.214 466.043 506.697 466.635 506.293C467.228 505.889 467.895 505.606 468.597 505.459C470.016 505.164 471.494 505.444 472.706 506.238C473.306 506.631 473.823 507.139 474.227 507.732C474.631 508.325 474.914 508.991 475.06 509.694L478.667 527.031L496.002 523.415C496.705 523.268 497.429 523.262 498.134 523.395C498.839 523.529 499.51 523.8 500.111 524.193C500.711 524.587 501.228 525.094 501.632 525.687C502.035 526.28 502.319 526.947 502.465 527.649C502.611 528.352 502.618 529.076 502.484 529.781C502.351 530.486 502.08 531.157 501.686 531.758C501.293 532.358 500.786 532.875 500.193 533.279C499.6 533.683 498.933 533.966 498.231 534.112L480.894 537.719L484.51 555.054ZM459.27 565.168C458.784 564.086 458.385 562.968 458.075 561.823C457.904 561.167 457.496 560.599 456.929 560.227C456.363 559.856 455.678 559.709 455.009 559.814C449.494 560.635 443.874 559.317 439.301 556.128C434.727 552.94 431.545 548.123 430.408 542.665C429.271 537.207 430.265 531.52 433.185 526.77C436.105 522.021 440.731 518.568 446.115 517.119C446.765 516.946 447.328 516.539 447.697 515.977C448.066 515.414 448.213 514.735 448.112 514.07C447.41 509.373 448.258 504.575 450.528 500.404C452.797 496.232 456.365 492.913 460.689 490.951C461.113 490.751 461.478 490.446 461.749 490.065C462.021 489.684 462.189 489.239 462.24 488.774C462.29 488.308 462.219 487.838 462.035 487.408C461.851 486.977 461.559 486.602 461.188 486.316C458.011 483.784 454.71 481.395 451.285 479.15C427.897 463.701 400.067 456.395 372.107 458.364C370.651 458.467 369.23 458.862 367.93 459.526C366.631 460.19 365.478 461.109 364.54 462.227C363.604 463.343 362.906 464.638 362.489 466.033C362.071 467.428 361.944 468.894 362.114 470.34L374.571 580.855C374.75 582.454 375.282 583.993 376.128 585.362C376.974 586.73 378.113 587.894 379.463 588.769C380.803 589.652 382.322 590.227 383.91 590.453C385.498 590.68 387.117 590.552 388.65 590.08L457.575 568.888C457.944 568.775 458.286 568.585 458.576 568.33C458.866 568.075 459.1 567.761 459.26 567.41C459.42 567.058 459.504 566.676 459.505 566.29C459.507 565.903 459.427 565.521 459.27 565.168Z" fill="#CBFFBC"/>
</g>
<g clip-path="url(#clip4_2980_5676)">
<path d="M1097.24 580.054C1097.09 580.756 1097.09 581.481 1097.22 582.185C1097.35 582.89 1097.62 583.562 1098.02 584.162C1098.41 584.762 1098.92 585.279 1099.51 585.683C1100.1 586.087 1100.77 586.37 1101.47 586.517C1102.18 586.663 1102.9 586.67 1103.6 586.536C1104.31 586.402 1104.98 586.131 1105.58 585.738C1106.18 585.345 1106.7 584.837 1107.1 584.244C1107.51 583.651 1107.79 582.985 1107.94 582.282L1111.54 564.945L1128.88 568.561C1130.3 568.857 1131.77 568.577 1132.99 567.783C1134.2 566.989 1135.05 565.746 1135.34 564.327C1135.64 562.908 1135.36 561.431 1134.56 560.219C1133.77 559.006 1132.52 558.16 1131.11 557.864L1113.77 554.257L1117.39 536.922C1117.53 536.22 1117.54 535.496 1117.4 534.791C1117.27 534.086 1117 533.414 1116.61 532.814C1116.21 532.214 1115.71 531.697 1115.11 531.293C1114.52 530.889 1113.85 530.606 1113.15 530.459C1111.73 530.164 1110.25 530.444 1109.04 531.238C1108.44 531.631 1107.93 532.139 1107.52 532.732C1107.12 533.325 1106.83 533.991 1106.69 534.694L1103.08 552.031L1085.75 548.415C1085.04 548.268 1084.32 548.262 1083.61 548.395C1082.91 548.529 1082.24 548.8 1081.64 549.193C1081.04 549.587 1080.52 550.094 1080.12 550.687C1079.71 551.28 1079.43 551.947 1079.28 552.649C1079.14 553.352 1079.13 554.076 1079.26 554.781C1079.4 555.486 1079.67 556.157 1080.06 556.758C1080.46 557.358 1080.96 557.875 1081.56 558.279C1082.15 558.683 1082.82 558.966 1083.52 559.112L1100.85 562.719L1097.24 580.054ZM1122.48 590.168C1122.96 589.086 1123.36 587.968 1123.67 586.823C1123.84 586.167 1124.25 585.599 1124.82 585.227C1125.39 584.856 1126.07 584.709 1126.74 584.814C1132.25 585.635 1137.87 584.317 1142.45 581.128C1147.02 577.94 1150.2 573.123 1151.34 567.665C1152.48 562.207 1151.48 556.52 1148.56 551.77C1145.64 547.021 1141.02 543.568 1135.63 542.119C1134.98 541.946 1134.42 541.539 1134.05 540.977C1133.68 540.414 1133.53 539.735 1133.64 539.07C1134.34 534.373 1133.49 529.575 1131.22 525.404C1128.95 521.232 1125.38 517.913 1121.06 515.951C1120.64 515.751 1120.27 515.446 1120 515.065C1119.73 514.684 1119.56 514.239 1119.51 513.774C1119.46 513.308 1119.53 512.838 1119.71 512.408C1119.9 511.977 1120.19 511.602 1120.56 511.316C1123.74 508.784 1127.04 506.395 1130.46 504.15C1153.85 488.701 1181.68 481.395 1209.64 483.364C1211.1 483.467 1212.52 483.862 1213.82 484.526C1215.12 485.19 1216.27 486.109 1217.21 487.227C1218.14 488.343 1218.84 489.638 1219.26 491.033C1219.68 492.428 1219.8 493.894 1219.63 495.34L1207.18 605.855C1207 607.454 1206.47 608.993 1205.62 610.362C1204.77 611.73 1203.64 612.894 1202.28 613.769C1200.95 614.652 1199.43 615.227 1197.84 615.453C1196.25 615.68 1194.63 615.552 1193.1 615.08L1124.17 593.888C1123.8 593.775 1123.46 593.585 1123.17 593.33C1122.88 593.075 1122.65 592.761 1122.49 592.41C1122.33 592.058 1122.24 591.676 1122.24 591.29C1122.24 590.903 1122.32 590.521 1122.48 590.168Z" fill="#CBFFBC"/>
</g>
<g opacity="0.09" style="mix-blend-mode:hard-light">
<path d="M489.609 -286.242C661.414 153.773 1564.91 177.774 1564.91 871.273" stroke="#0E3016" stroke-width="109"/>
</g>
<g opacity="0.09" style="mix-blend-mode:hard-light">
<path d="M708.609 -471.241C927.418 106.807 1779.41 -7.72618 1779.41 685.773" stroke="#0E3016" stroke-width="109"/>
</g>
<g opacity="0.09" style="mix-blend-mode:hard-light">
<path d="M-186.391 313.759C32.4184 891.806 828.609 660.26 828.609 1353.76" stroke="#0E3016" stroke-width="109"/>
</g>
<g opacity="0.09" style="mix-blend-mode:hard-light">
<path d="M244.415 -114.728C463.224 463.32 1259.41 231.773 1259.41 925.273" stroke="#0E3016" stroke-width="109"/>
</g>
</g>
</g>
<defs>
<filter id="filter0_dn_2980_5676" x="0" y="0" width="1570" height="939" filterUnits="userSpaceOnUse" color-interpolation-filters="sRGB">
<feFlood flood-opacity="0" result="BackgroundImageFix"/>
<feColorMatrix in="SourceAlpha" type="matrix" values="0 0 0 0 0 0 0 0 0 0 0 0 0 0 0 0 0 0 127 0" result="hardAlpha"/>
<feOffset dy="4"/>
<feGaussianBlur stdDeviation="2"/>
<feComposite in2="hardAlpha" operator="out"/>
<feColorMatrix type="matrix" values="0 0 0 0 0 0 0 0 0 0 0 0 0 0 0 0 0 0 0.25 0"/>
<feBlend mode="normal" in2="BackgroundImageFix" result="effect1_dropShadow_2980_5676"/>
<feBlend mode="normal" in="SourceGraphic" in2="BackgroundImageFix" result="shape"/>
<feTurbulence type="fractalNoise" baseFrequency="0.66666668653488159 0.66666668653488159" stitchTiles="stitch" numOctaves="3" result="noise" seed="9484" />
<feColorMatrix in="noise" type="luminanceToAlpha" result="alphaNoise" />
<feComponentTransfer in="alphaNoise" result="coloredNoise1">
<feFuncA type="discrete" tableValues="1 1 1 1 1 1 1 1 1 1 1 1 1 1 1 1 1 1 1 1 1 1 1 1 1 1 1 1 1 1 1 1 1 1 1 1 1 1 1 1 1 1 1 1 1 1 1 1 1 1 1 0 0 0 0 0 0 0 0 0 0 0 0 0 0 0 0 0 0 0 0 0 0 0 0 0 0 0 0 0 0 0 0 0 0 0 0 0 0 0 0 0 0 0 0 0 0 0 0 0 "/>
</feComponentTransfer>
<feComposite operator="in" in2="shape" in="coloredNoise1" result="noise1Clipped" />
<feFlood flood-color="rgba(189, 189, 189, 0.25)" result="color1Flood" />
<feComposite operator="in" in2="noise1Clipped" in="color1Flood" result="color1" />
<feMerge result="effect2_noise_2980_5676">
<feMergeNode in="shape" />
<feMergeNode in="color1" />
</feMerge>
<feBlend mode="normal" in="effect2_noise_2980_5676" in2="effect1_dropShadow_2980_5676" result="effect2_noise_2980_5676"/>
</filter>
<clipPath id="clip0_2980_5676">
<rect x="4" width="1562" height="931" rx="166" fill="white"/>
</clipPath>
<clipPath id="clip1_2980_5676">
<rect width="660.4" height="660.4" fill="white" transform="translate(269.614 131) rotate(30)"/>
</clipPath>
<clipPath id="clip2_2980_5676">
<rect width="660.4" height="660.4" fill="white" transform="translate(727.538 461.199) rotate(-30)"/>
</clipPath>
<clipPath id="clip3_2980_5676">
<rect width="174.735" height="174.735" fill="white" transform="translate(390.176 413) rotate(33.2325)"/>
</clipPath>
<clipPath id="clip4_2980_5676">
<rect width="174.735" height="174.735" fill="white" transform="matrix(-0.836453 0.548038 0.548038 0.836453 1191.57 438)"/>
</clipPath>
</defs>
</svg>
