<svg width="82" height="48" viewBox="0 0 82 48" fill="none" xmlns="http://www.w3.org/2000/svg">
<path d="M0 15.2008V11.2324C0 10.5431 0.558748 9.98438 1.248 9.98438H24.5175C25.5904 9.98438 26.1632 11.2486 25.4558 12.0552L10.8943 28.6595H26.0239C26.7132 28.6595 27.2719 29.2182 27.2719 29.9075V33.6964C27.2719 34.3856 26.7132 34.9444 26.0239 34.9444H8.137C7.06412 34.9444 6.4913 33.6802 7.19871 32.8735L10.8943 28.6595H4.22991C3.15064 28.6595 2.58022 27.3822 3.30059 26.5785L10.5148 18.5298C11.2352 17.7261 10.6647 16.4488 9.58546 16.4488H1.248C0.558749 16.4488 0 15.8901 0 15.2008Z" fill="#193C1A"/>
<path d="M44.866 19.5714C44.866 20.6885 44.6025 21.7424 44.0756 22.733C43.5487 23.7236 42.7056 24.5351 41.5463 25.1674C40.387 25.7787 38.9011 26.0843 37.0884 26.0843H33.1048V35H29.5006V13.0269H37.0884C38.7746 13.0269 40.1974 13.322 41.3566 13.9121C42.5369 14.4812 43.4116 15.2611 43.9807 16.2517C44.5709 17.2423 44.866 18.3489 44.866 19.5714ZM37.0884 23.144C38.4585 23.144 39.4807 22.8384 40.1552 22.2271C40.8297 21.5948 41.1669 20.7096 41.1669 19.5714C41.1669 17.1686 39.8074 15.9672 37.0884 15.9672H33.1048V23.144H37.0884ZM44.6061 26.2108C44.6061 24.4613 44.9644 22.9121 45.681 21.5632C46.4187 20.2142 47.4094 19.1709 48.6529 18.4332C49.9176 17.6744 51.3087 17.295 52.8262 17.295C54.1963 17.295 55.3871 17.569 56.3988 18.1171C57.4316 18.644 58.2536 19.3079 58.8649 20.1089V17.5796H62.5007V35H58.8649V32.4075C58.2536 33.2295 57.4211 33.9145 56.3672 34.4625C55.3134 35.0105 54.112 35.2845 52.763 35.2845C51.2665 35.2845 49.8965 34.9052 48.6529 34.1464C47.4094 33.3665 46.4187 32.2916 45.681 30.9215C44.9644 29.5304 44.6061 27.9602 44.6061 26.2108ZM58.8649 26.274C58.8649 25.0726 58.612 24.0292 58.1061 23.144C57.6213 22.2588 56.9785 21.5843 56.1775 21.1206C55.3766 20.6569 54.5124 20.425 53.585 20.425C52.6576 20.425 51.7934 20.6569 50.9925 21.1206C50.1916 21.5632 49.5382 22.2271 49.0323 23.1124C48.5475 23.9766 48.3051 25.0093 48.3051 26.2108C48.3051 27.4122 48.5475 28.466 49.0323 29.3724C49.5382 30.2787 50.1916 30.9742 50.9925 31.459C51.8145 31.9227 52.6787 32.1546 53.585 32.1546C54.5124 32.1546 55.3766 31.9227 56.1775 31.459C56.9785 30.9953 57.6213 30.3208 58.1061 29.4356C58.612 28.5293 58.8649 27.4754 58.8649 26.274ZM80.4203 17.5796L69.7341 43.1885H66.0034L69.5444 34.7155L62.6837 17.5796H66.6989L71.5994 30.8583L76.6896 17.5796H80.4203Z" fill="#193C1A"/>
</svg>
